<?xml version="1.0" encoding="UTF-8"?>
<svg id="Capa_1" xmlns="http://www.w3.org/2000/svg" width="992.1" height="992.1" version="1.1" viewBox="0 0 992.1 992.1">
  <!-- Generator: Adobe Illustrator 29.1.0, SVG Export Plug-In . SVG Version: 2.1.0 Build 142)  -->
  <defs>
    <style>
      .st0 {
        fill: #fff;
      }

      .st0, .st1 {
        fill-rule: evenodd;
      }

      .st1 {
        fill: #00d5b9;
      }
    </style>
  </defs>
  <path d="M496,4.5C224.6,4.5,4.5,224.6,4.5,496.1s220.1,491.5,491.5,491.5,491.5-220.1,491.5-491.5S767.5,4.5,496,4.5ZM440.1,195.5h130.2s102.9,262.7,102.9,262.7c-17.2-1.9-34.7-2.9-52.5-2.9-25.9,0-51.3,2.1-76.1,6.2l-39.2-100.2-48.3,123.4c-66,24.6-125.4,63.6-174.5,113.4l157.4-402.6ZM620.8,621.5c-101.6,0-192.2,48.7-251.2,124.7h-143c73.3-148,222.3-249.4,394.2-249.4s47,1.9,69.7,5.6l57,145.8c-38.9-17.2-81.7-26.8-126.7-26.8Z"/>
  <path class="st0" d="M570.4,195.5l102.9,262.7c-17.2-1.9-34.7-2.9-52.5-2.9-25.9,0-51.3,2.1-76.1,6.2l-39.2-100.2-48.3,123.4c-66,24.6-125.4,63.6-174.5,113.4l157.4-402.6h130.2Z"/>
  <path class="st1" d="M620.8,496.8c23.7,0,47,1.9,69.7,5.6l57,145.8c-38.9-17.2-81.7-26.8-126.7-26.8-101.6,0-192.2,48.7-251.2,124.7h-143c73.3-148,222.3-249.4,394.2-249.4Z"/>
</svg>